<svg width="20" height="20" viewBox="0 0 20 20" fill="none" xmlns="http://www.w3.org/2000/svg">
<rect width="19" height="19" transform="matrix(-1 0 0 1 19.5 0.5)" stroke="black"/>
<path d="M8.51562 10C8.02375 10 7.625 9.60125 7.625 9.10938C7.625 8.6175 8.02375 8.21875 8.51562 8.21875C9.0075 8.21875 9.40625 8.6175 9.40625 9.10938C9.40625 9.60125 9.0075 10 8.51562 10Z" fill="black"/>
<path d="M5.54688 10C5.055 10 4.65625 9.60125 4.65625 9.10938C4.65625 8.6175 5.055 8.21875 5.54688 8.21875C6.03875 8.21875 6.4375 8.6175 6.4375 9.10938C6.4375 9.60125 6.03875 10 5.54688 10Z" fill="black"/>
<path d="M8.51562 12.9688C8.02375 12.9688 7.625 12.57 7.625 12.0781C7.625 11.5862 8.02375 11.1875 8.51562 11.1875C9.0075 11.1875 9.40625 11.5862 9.40625 12.0781C9.40625 12.57 9.0075 12.9688 8.51562 12.9688Z" fill="black"/>
<path d="M4.0625 3.46875H15.9375C16.9213 3.46875 17.7188 4.26624 17.7188 5.25V15.9375C17.7188 16.9213 16.9213 17.7188 15.9375 17.7188H4.0625C3.07874 17.7188 2.28125 16.9213 2.28125 15.9375V5.25C2.28125 4.26624 3.07874 3.46875 4.0625 3.46875Z" stroke="black" stroke-width="0.5" stroke-linejoin="round"/>
<path d="M5.54688 12.9688C5.055 12.9688 4.65625 12.57 4.65625 12.0781C4.65625 11.5862 5.055 11.1875 5.54688 11.1875C6.03875 11.1875 6.4375 11.5862 6.4375 12.0781C6.4375 12.57 6.03875 12.9688 5.54688 12.9688Z" fill="black"/>
<path d="M14.4531 12.9688C13.9612 12.9688 13.5625 12.57 13.5625 12.0781C13.5625 11.5862 13.9612 11.1875 14.4531 11.1875C14.945 11.1875 15.3438 11.5862 15.3438 12.0781C15.3438 12.57 14.945 12.9688 14.4531 12.9688Z" fill="black"/>
<path d="M11.4844 12.9688C10.9925 12.9688 10.5938 12.57 10.5938 12.0781C10.5938 11.5862 10.9925 11.1875 11.4844 11.1875C11.9763 11.1875 12.375 11.5862 12.375 12.0781C12.375 12.57 11.9763 12.9688 11.4844 12.9688Z" fill="black"/>
<path d="M14.4531 15.9375C13.9612 15.9375 13.5625 15.5388 13.5625 15.0469C13.5625 14.555 13.9612 14.1562 14.4531 14.1562C14.945 14.1562 15.3438 14.555 15.3438 15.0469C15.3438 15.5388 14.945 15.9375 14.4531 15.9375Z" fill="black"/>
<path d="M11.4844 15.9375C10.9925 15.9375 10.5938 15.5388 10.5938 15.0469C10.5938 14.555 10.9925 14.1562 11.4844 14.1562C11.9763 14.1562 12.375 14.555 12.375 15.0469C12.375 15.5388 11.9763 15.9375 11.4844 15.9375Z" fill="black"/>
<path d="M8.51562 15.9375C8.02375 15.9375 7.625 15.5388 7.625 15.0469C7.625 14.555 8.02375 14.1562 8.51562 14.1562C9.0075 14.1562 9.40625 14.555 9.40625 15.0469C9.40625 15.5388 9.0075 15.9375 8.51562 15.9375Z" fill="black"/>
<path d="M14.75 2.28125V3.46875M5.25 2.28125V3.46875" stroke="black" stroke-width="0.5" stroke-linecap="round" stroke-linejoin="round"/>
<path d="M2.28125 6.4375H17.7188" stroke="black" stroke-width="0.5" stroke-linejoin="round"/>
</svg>
