<svg width="200" height="201" viewBox="0 0 200 201" fill="none" xmlns="http://www.w3.org/2000/svg">
<path d="M47.1875 21.9844L34.2109 78.2344H41.4453L52.8125 29.0156H59.9219L51.875 78.2344H59.0234L62.9687 54.0156H96.4844V78.2344H103.516V54.0156H137.031L140.977 78.2344H148.125L140.078 29.0156H147.187L158.555 78.2344H165.781L152.813 21.9844H47.1875ZM67.0703 29.0156H132.93L135.898 46.9844H64.1016L67.0703 29.0156ZM28.5156 85.2656V96.9844H171.484V85.2656H28.5156ZM28.2656 104.016L8.08203 191.516H191.914L171.719 104.016H164.492L183.086 184.484H165.508L152.344 104.016H145.195L150.742 138H103.516V104.016H96.4844V138H49.2578L54.8047 104.016H47.6562L34.5117 184.484H16.918L35.4961 104.016H28.2656ZM48.0859 145.031H151.914L158.359 184.484H41.6406L48.0859 145.031Z" fill="white"/>
</svg>
