<svg width="156" height="157" viewBox="0 0 156 157" fill="none" xmlns="http://www.w3.org/2000/svg">
<path d="M111.394 9.94536C109.383 9.94536 107.372 10.1282 105.391 10.4298C94.8797 12.0873 85.1297 17.4803 78.4875 24.1286C69.7125 32.9188 63.375 45.7157 60.6937 58.1469C60.2062 60.1883 59.9016 62.2907 59.6273 64.3625L49.4203 102.266L54.2344 107.08L92.107 96.8727C94.1789 96.5985 96.2812 96.2633 98.3531 95.8063C110.784 93.125 123.581 86.7875 132.356 78.0125C139.029 71.3399 144.422 61.5899 146.067 51.0782C147.652 40.5665 145.336 29.0493 136.348 20.0884C129.096 12.7972 120.169 9.89965 111.394 9.94536ZM111.424 15.8228C118.828 15.7375 126.019 18.1049 132.204 24.2657C139.821 31.8524 141.649 41.0844 140.217 50.1641C138.816 59.2743 133.91 68.0797 128.182 73.8079C120.443 81.5469 108.469 87.5797 97.1039 90.0172C85.7695 92.5157 75.4101 91.175 70.3523 86.0868C65.325 81.0594 63.9844 70.7305 66.4523 59.3657C68.9203 48.0313 74.9226 36.0266 82.6922 28.3058C88.3898 22.5838 97.2258 17.6905 106.336 16.2554C108.012 15.9873 109.748 15.8411 111.424 15.8228ZM60.8461 81.2727C61.9734 84.7157 63.6797 87.8235 66.1781 90.261C68.6461 92.7594 71.7234 94.5266 75.1664 95.6235L55.9711 100.498L60.8461 81.2727ZM45.5203 106.745L15.2344 137.061L13.6348 135.507L9.45749 139.681L16.8827 147.055L21.0569 142.911L19.4086 141.266L49.725 110.919L45.5203 106.745ZM109.809 120.486C103.868 120.486 98.9625 125.361 98.9625 131.302C98.9625 137.244 103.868 142.119 109.809 142.119C115.72 142.119 120.626 137.244 120.626 131.302C120.626 125.361 115.72 120.486 109.809 120.486Z" fill="white"/>
</svg>
