<svg width="150" height="151" viewBox="0 0 150 151" fill="none" xmlns="http://www.w3.org/2000/svg">
<path d="M117.281 33.2422C108.923 24.883 98.274 19.1901 86.6804 16.8834C75.0868 14.5766 63.0695 15.7597 52.1483 20.283C41.227 24.8063 31.8925 32.4666 25.325 42.2952C18.7575 52.1238 15.2521 63.6792 15.2521 75.5C15.2521 87.3209 18.7575 98.8763 25.325 108.705C31.8925 118.533 41.227 126.194 52.1483 130.717C63.0695 135.24 75.0868 136.423 86.6804 134.117C98.274 131.81 108.923 126.117 117.281 117.758C122.872 112.232 127.311 105.651 130.341 98.3977C133.37 91.1439 134.93 83.3611 134.93 75.5C134.93 67.639 133.37 59.8561 130.341 52.6024C127.311 45.3486 122.872 38.7681 117.281 33.2422ZM37.6934 38.211C46.662 29.2332 58.5782 23.8069 71.2383 22.9356C70.3651 35.5891 64.9264 47.495 55.9336 56.4395C46.9819 65.4314 35.0703 70.8677 22.4121 71.7383C23.2886 59.0835 28.7168 47.1739 37.6934 38.211ZM22.3828 78.7989C36.929 77.9375 50.6509 71.7584 60.9375 61.4375C71.2642 51.1711 77.4541 37.4651 78.3281 22.9297C91.1504 23.7059 103.245 29.1479 112.331 38.2291C121.416 47.3103 126.864 59.4027 127.646 72.2246C113.118 73.1335 99.4213 79.3133 89.1261 89.6041C78.8309 99.895 72.6454 113.589 71.7305 128.117C58.8992 127.347 46.794 121.905 37.7019 112.818C28.6098 103.732 23.1603 91.6297 22.3828 78.7989ZM112.307 112.783C103.337 121.758 91.4209 127.183 78.7617 128.053C79.6687 115.406 85.1049 103.51 94.0732 94.5472C103.041 85.5843 114.941 80.1553 127.588 79.2559C126.713 91.9128 121.284 103.825 112.307 112.789V112.783Z" fill="white"/>
</svg>
