<svg width="13" height="19" viewBox="0 0 13 19" fill="none" xmlns="http://www.w3.org/2000/svg">
<path d="M6.5 0.5C3.1875 0.5 0.5 3.05792 0.5 6.20833C0.5 9.83333 4.5 15.5779 5.96875 17.5621C6.02972 17.6458 6.10962 17.714 6.20195 17.761C6.29428 17.808 6.3964 17.8325 6.5 17.8325C6.6036 17.8325 6.70573 17.808 6.79805 17.761C6.89038 17.714 6.97028 17.6458 7.03125 17.5621C8.5 15.5788 12.5 9.83625 12.5 6.20833C12.5 3.05792 9.8125 0.5 6.5 0.5Z" stroke="black" stroke-linecap="round" stroke-linejoin="round"/>
<path d="M6.5 8.5C7.60457 8.5 8.5 7.60457 8.5 6.5C8.5 5.39543 7.60457 4.5 6.5 4.5C5.39543 4.5 4.5 5.39543 4.5 6.5C4.5 7.60457 5.39543 8.5 6.5 8.5Z" stroke="black" stroke-linecap="round" stroke-linejoin="round"/>
</svg>
