<svg width="50" height="50" viewBox="0 0 50 50" fill="none" xmlns="http://www.w3.org/2000/svg">
<path d="M39.0937 10.9141C36.3077 8.12766 32.758 6.23002 28.8934 5.46111C25.0289 4.6922 21.0231 5.08656 17.3827 6.59432C13.7423 8.10208 10.6308 10.6555 8.44161 13.9317C6.25245 17.2079 5.08398 21.0597 5.08398 25C5.08398 28.9403 6.25245 32.7921 8.44161 36.0683C10.6308 39.3445 13.7423 41.8979 17.3827 43.4057C21.0231 44.9134 25.0289 45.3078 28.8934 44.5389C32.758 43.77 36.3077 41.8723 39.0937 39.0859C40.9574 37.244 42.4371 35.0505 43.4469 32.6326C44.4568 30.2146 44.9768 27.6203 44.9768 25C44.9768 22.3797 44.4568 19.7854 43.4469 17.3674C42.4371 14.9495 40.9574 12.756 39.0937 10.9141ZM12.5644 12.5703C15.5539 9.57772 19.526 7.76894 23.7461 7.47851C23.455 11.6964 21.6421 15.665 18.6445 18.6465C15.6606 21.6438 11.69 23.4559 7.47066 23.7461C7.76283 19.5278 9.57224 15.5579 12.5644 12.5703ZM7.4609 26.0996C12.3096 25.8125 16.8836 23.7528 20.3125 20.3125C23.7547 16.8904 25.818 12.3217 26.1093 7.47656C30.3834 7.73528 34.4151 9.5493 37.4436 12.5764C40.4721 15.6034 42.288 19.6342 42.5488 23.9082C37.7061 24.2111 33.1404 26.2711 29.7087 29.7014C26.2769 33.1317 24.2151 37.6965 23.9101 42.5391C19.633 42.2824 15.598 40.4683 12.5673 37.4394C9.53656 34.4105 7.72005 30.3766 7.4609 26.0996ZM37.4355 37.4277C34.4456 40.4195 30.4736 42.2275 26.2539 42.5176C26.5562 38.302 28.3682 34.3367 31.3577 31.3491C34.3471 28.3614 38.3135 26.5517 42.5293 26.2519C42.2376 30.4709 40.4281 34.4415 37.4355 37.4297V37.4277Z" fill="white"/>
</svg>
