<svg width="21" height="20" viewBox="0 0 21 20" fill="none" xmlns="http://www.w3.org/2000/svg">
<path d="M16.2031 6.5625C16.0887 8.15117 14.9101 9.375 13.625 9.375C12.3398 9.375 11.1594 8.15156 11.0469 6.5625C10.9297 4.90977 12.0769 3.75 13.625 3.75C15.173 3.75 16.3203 4.93984 16.2031 6.5625Z" stroke="black" stroke-width="0.5" stroke-linecap="round" stroke-linejoin="round"/>
<path d="M13.625 11.875C11.0793 11.875 8.63125 13.1395 8.01797 15.602C7.93672 15.9277 8.14101 16.25 8.47578 16.25H18.7746C19.1094 16.25 19.3125 15.9277 19.2324 15.602C18.6191 13.1 16.1711 11.875 13.625 11.875Z" stroke="black" stroke-width="0.5" stroke-miterlimit="10"/>
<path d="M8.31251 7.26328C8.2211 8.53203 7.26876 9.53125 6.24219 9.53125C5.21563 9.53125 4.26173 8.53242 4.17188 7.26328C4.07852 5.94336 5.00548 5 6.24219 5C7.47891 5 8.40587 5.96758 8.31251 7.26328Z" stroke="black" stroke-width="0.5" stroke-linecap="round" stroke-linejoin="round"/>
<path d="M8.54686 11.9531C7.84178 11.6301 7.06522 11.5059 6.24217 11.5059C4.21092 11.5059 2.25389 12.5156 1.76366 14.4824C1.6992 14.7426 1.86249 15 2.12967 15H6.51561" stroke="black" stroke-width="0.5" stroke-miterlimit="10" stroke-linecap="round"/>
</svg>
